<mxfile host="app.diagrams.net" modified="2022-05-30T07:33:38.688Z" agent="5.0 (Windows NT 10.0; Win64; x64) AppleWebKit/537.36 (KHTML, like Gecko) Chrome/101.0.4951.67 Safari/537.36" etag="WYoHu9-SsT7Cn8OxqQxU" version="18.1.3" type="github">
  <diagram id="0QOim903fwf61id-Mvym" name="Page-1">
    <mxGraphModel dx="1422" dy="762" grid="1" gridSize="10" guides="1" tooltips="1" connect="1" arrows="1" fold="1" page="1" pageScale="1" pageWidth="850" pageHeight="1100" math="0" shadow="0">
      <root>
        <mxCell id="0" />
        <mxCell id="1" parent="0" />
        <mxCell id="OqeTSNmKw22S1w7HKU9s-9" value="Gate-Cut" style="rounded=0;whiteSpace=wrap;html=1;fillColor=none;strokeColor=#FF0000;dashed=1;strokeWidth=2;perimeterSpacing=2;" parent="1" vertex="1">
          <mxGeometry x="750" y="200" width="80" height="20" as="geometry" />
        </mxCell>
        <mxCell id="OqeTSNmKw22S1w7HKU9s-1" value="Gate" style="rounded=0;whiteSpace=wrap;html=1;fillColor=#f8cecc;strokeColor=#b85450;" parent="1" vertex="1">
          <mxGeometry x="750" y="20" width="80" height="20" as="geometry" />
        </mxCell>
        <mxCell id="OqeTSNmKw22S1w7HKU9s-3" value="Active" style="rounded=0;whiteSpace=wrap;html=1;fillColor=#d5e8d4;strokeColor=#82b366;" parent="1" vertex="1">
          <mxGeometry x="750" y="50" width="80" height="20" as="geometry" />
        </mxCell>
        <mxCell id="OqeTSNmKw22S1w7HKU9s-4" value="M0A" style="rounded=0;whiteSpace=wrap;html=1;fillColor=#dae8fc;strokeColor=#6c8ebf;" parent="1" vertex="1">
          <mxGeometry x="750" y="80" width="80" height="20" as="geometry" />
        </mxCell>
        <mxCell id="OqeTSNmKw22S1w7HKU9s-5" value="Power rail" style="rounded=0;whiteSpace=wrap;html=1;fillColor=#e1d5e7;strokeColor=#9673a6;" parent="1" vertex="1">
          <mxGeometry x="750" y="110" width="80" height="20" as="geometry" />
        </mxCell>
        <mxCell id="OqeTSNmKw22S1w7HKU9s-6" value="MINT" style="rounded=0;whiteSpace=wrap;html=1;fillColor=#b0e3e6;strokeColor=#0e8088;" parent="1" vertex="1">
          <mxGeometry x="750" y="140" width="80" height="20" as="geometry" />
        </mxCell>
        <mxCell id="OqeTSNmKw22S1w7HKU9s-7" value="M1" style="rounded=0;whiteSpace=wrap;html=1;" parent="1" vertex="1">
          <mxGeometry x="750" y="170" width="80" height="20" as="geometry" />
        </mxCell>
      </root>
    </mxGraphModel>
  </diagram>
</mxfile>
